<svg xmlns="http://www.w3.org/2000/svg" width="1120" height="1120"><defs><linearGradient id="prefix__a" y1="560" x2="1120" y2="560" gradientUnits="userSpaceOnUse"><stop offset="0" stop-color="#7775ff"/><stop offset="1" stop-color="#ae2df1"/></linearGradient></defs><circle cx="560" cy="560" r="560" fill="url(#prefix__a)"/><path d="M452 624l53-37-306-215-8-3h-10l-9 3-6 4-5 5-3 5-2 7-1 7 1 8 155 424 8 9 7 4 7 2h6l7-1 11-5 515-362-105 290-107-75-53 37 157 110 7 4 6 2h7l6-1 7-3 6-5 6-8 3-9 150-411 1-4v-12l-1-5-3-7-5-5-5-4-4-2-4-1-7-1-8 1-6 2-568 397-105-289z" fill="#fff" fill-rule="evenodd"/></svg>